<mxfile host="app.diagrams.net" agent="Mozilla/5.0 (Windows NT 10.0; Win64; x64) AppleWebKit/537.36 (KHTML, like Gecko) Chrome/132.0.0.0 Safari/537.36" version="26.0.11">
  <diagram name="Page-1" id="7iyscIZpLDii-ziSJlZC">
    <mxGraphModel dx="795" dy="465" grid="1" gridSize="10" guides="1" tooltips="1" connect="1" arrows="1" fold="1" page="1" pageScale="1" pageWidth="850" pageHeight="1100" math="0" shadow="0">
      <root>
        <mxCell id="0" />
        <mxCell id="1" parent="0" />
        <mxCell id="MuK9yvm6-GWO1-C86sv5-1" value="dnstt" style="rounded=1;whiteSpace=wrap;html=1;" parent="1" vertex="1">
          <mxGeometry x="50" y="60" width="80" height="30" as="geometry" />
        </mxCell>
        <mxCell id="MuK9yvm6-GWO1-C86sv5-2" value="godoh" style="rounded=1;whiteSpace=wrap;html=1;" parent="1" vertex="1">
          <mxGeometry x="50" y="100" width="80" height="30" as="geometry" />
        </mxCell>
        <mxCell id="MuK9yvm6-GWO1-C86sv5-3" value="DNSExfiltrator" style="rounded=1;whiteSpace=wrap;html=1;" parent="1" vertex="1">
          <mxGeometry x="50" y="140" width="80" height="30" as="geometry" />
        </mxCell>
        <mxCell id="MuK9yvm6-GWO1-C86sv5-4" value="tcp-over-dns" style="rounded=1;whiteSpace=wrap;html=1;" parent="1" vertex="1">
          <mxGeometry x="50" y="210" width="80" height="30" as="geometry" />
        </mxCell>
        <mxCell id="MuK9yvm6-GWO1-C86sv5-5" value="tuns" style="rounded=1;whiteSpace=wrap;html=1;" parent="1" vertex="1">
          <mxGeometry x="50" y="250" width="80" height="30" as="geometry" />
        </mxCell>
        <mxCell id="jizNXRpVAwG-D235Epvu-2" value="DoH proxy" style="rounded=1;whiteSpace=wrap;html=1;" vertex="1" parent="1">
          <mxGeometry x="180" y="200" width="40" height="90" as="geometry" />
        </mxCell>
        <mxCell id="jizNXRpVAwG-D235Epvu-3" value="" style="endArrow=none;html=1;rounded=0;exitX=1.01;exitY=0.36;exitDx=0;exitDy=0;entryX=0.005;entryY=0.224;entryDx=0;entryDy=0;exitPerimeter=0;entryPerimeter=0;" edge="1" parent="1" source="MuK9yvm6-GWO1-C86sv5-4" target="jizNXRpVAwG-D235Epvu-2">
          <mxGeometry width="50" height="50" relative="1" as="geometry">
            <mxPoint x="160" y="420" as="sourcePoint" />
            <mxPoint x="210" y="370" as="targetPoint" />
          </mxGeometry>
        </mxCell>
        <mxCell id="jizNXRpVAwG-D235Epvu-4" value="" style="endArrow=none;html=1;rounded=0;exitX=1.01;exitY=0.36;exitDx=0;exitDy=0;exitPerimeter=0;" edge="1" parent="1">
          <mxGeometry width="50" height="50" relative="1" as="geometry">
            <mxPoint x="130" y="265.5" as="sourcePoint" />
            <mxPoint x="180" y="265" as="targetPoint" />
          </mxGeometry>
        </mxCell>
        <mxCell id="jizNXRpVAwG-D235Epvu-5" value="DoH Server" style="rounded=1;whiteSpace=wrap;html=1;" vertex="1" parent="1">
          <mxGeometry x="280" y="40" width="80" height="260" as="geometry" />
        </mxCell>
        <mxCell id="jizNXRpVAwG-D235Epvu-7" value="" style="endArrow=none;html=1;rounded=0;exitX=1;exitY=0.5;exitDx=0;exitDy=0;entryX=-0.012;entryY=0.127;entryDx=0;entryDy=0;entryPerimeter=0;" edge="1" parent="1" source="MuK9yvm6-GWO1-C86sv5-1" target="jizNXRpVAwG-D235Epvu-5">
          <mxGeometry width="50" height="50" relative="1" as="geometry">
            <mxPoint x="180" y="130" as="sourcePoint" />
            <mxPoint x="230" y="80" as="targetPoint" />
          </mxGeometry>
        </mxCell>
        <mxCell id="jizNXRpVAwG-D235Epvu-10" value="" style="endArrow=none;html=1;rounded=0;exitX=1;exitY=0.5;exitDx=0;exitDy=0;" edge="1" parent="1">
          <mxGeometry width="50" height="50" relative="1" as="geometry">
            <mxPoint x="130" y="116" as="sourcePoint" />
            <mxPoint x="280" y="114" as="targetPoint" />
          </mxGeometry>
        </mxCell>
        <mxCell id="jizNXRpVAwG-D235Epvu-11" value="" style="endArrow=none;html=1;rounded=0;exitX=1;exitY=0.5;exitDx=0;exitDy=0;entryX=-0.005;entryY=0.446;entryDx=0;entryDy=0;entryPerimeter=0;" edge="1" parent="1" target="jizNXRpVAwG-D235Epvu-5">
          <mxGeometry width="50" height="50" relative="1" as="geometry">
            <mxPoint x="131" y="156" as="sourcePoint" />
            <mxPoint x="350" y="154" as="targetPoint" />
          </mxGeometry>
        </mxCell>
        <mxCell id="jizNXRpVAwG-D235Epvu-13" value="" style="endArrow=none;html=1;rounded=0;exitX=1;exitY=0.5;exitDx=0;exitDy=0;" edge="1" parent="1" source="jizNXRpVAwG-D235Epvu-2">
          <mxGeometry width="50" height="50" relative="1" as="geometry">
            <mxPoint x="250" y="280" as="sourcePoint" />
            <mxPoint x="280" y="244" as="targetPoint" />
          </mxGeometry>
        </mxCell>
        <mxCell id="jizNXRpVAwG-D235Epvu-14" value="&lt;span style=&quot;color: rgb(31, 35, 40); font-family: -apple-system, BlinkMacSystemFont, &amp;quot;Segoe UI&amp;quot;, &amp;quot;Noto Sans&amp;quot;, Helvetica, Arial, sans-serif, &amp;quot;Apple Color Emoji&amp;quot;, &amp;quot;Segoe UI Emoji&amp;quot;; text-align: left; background-color: rgb(255, 255, 255);&quot;&gt;&lt;font&gt;suspicious&amp;nbsp;&lt;/font&gt;&lt;/span&gt;&lt;div&gt;&lt;span style=&quot;color: rgb(31, 35, 40); font-family: -apple-system, BlinkMacSystemFont, &amp;quot;Segoe UI&amp;quot;, &amp;quot;Noto Sans&amp;quot;, Helvetica, Arial, sans-serif, &amp;quot;Apple Color Emoji&amp;quot;, &amp;quot;Segoe UI Emoji&amp;quot;; text-align: left; background-color: rgb(255, 255, 255);&quot;&gt;&lt;font&gt;DNS&amp;nbsp;&lt;/font&gt;&lt;/span&gt;&lt;/div&gt;&lt;div&gt;&lt;span style=&quot;color: rgb(31, 35, 40); font-family: -apple-system, BlinkMacSystemFont, &amp;quot;Segoe UI&amp;quot;, &amp;quot;Noto Sans&amp;quot;, Helvetica, Arial, sans-serif, &amp;quot;Apple Color Emoji&amp;quot;, &amp;quot;Segoe UI Emoji&amp;quot;; text-align: left; background-color: rgb(255, 255, 255);&quot;&gt;&lt;font&gt;server&lt;/font&gt;&lt;/span&gt;&lt;/div&gt;" style="rounded=1;whiteSpace=wrap;html=1;" vertex="1" parent="1">
          <mxGeometry x="410" y="40" width="80" height="260" as="geometry" />
        </mxCell>
        <mxCell id="jizNXRpVAwG-D235Epvu-15" value="" style="endArrow=none;html=1;rounded=0;exitX=1;exitY=0.5;exitDx=0;exitDy=0;entryX=0;entryY=0.5;entryDx=0;entryDy=0;" edge="1" parent="1" source="jizNXRpVAwG-D235Epvu-5" target="jizNXRpVAwG-D235Epvu-14">
          <mxGeometry width="50" height="50" relative="1" as="geometry">
            <mxPoint x="570" y="230" as="sourcePoint" />
            <mxPoint x="620" y="180" as="targetPoint" />
          </mxGeometry>
        </mxCell>
        <mxCell id="jizNXRpVAwG-D235Epvu-17" value="" style="swimlane;startSize=0;dashed=1;" vertex="1" parent="1">
          <mxGeometry x="230" y="60" width="40" height="220" as="geometry" />
        </mxCell>
        <mxCell id="jizNXRpVAwG-D235Epvu-18" value="&lt;font style=&quot;font-size: 10px;&quot;&gt;Capture&lt;/font&gt;&lt;div&gt;&lt;font style=&quot;font-size: 10px;&quot;&gt;Point&lt;/font&gt;&lt;/div&gt;" style="text;html=1;align=center;verticalAlign=middle;whiteSpace=wrap;rounded=0;" vertex="1" parent="jizNXRpVAwG-D235Epvu-17">
          <mxGeometry x="5" y="120" width="30" height="30" as="geometry" />
        </mxCell>
      </root>
    </mxGraphModel>
  </diagram>
</mxfile>
